<svg width="33" height="33" viewBox="0 0 33 33" fill="none" xmlns="http://www.w3.org/2000/svg">
<path fill-rule="evenodd" clip-rule="evenodd" d="M17.2333 7.2561H10.1213C8.273 7.2561 7.34085 8.92061 7.29953 8.99847L4.94053 13.4655C4.85183 13.6602 4.77416 13.8581 4.70364 14.0543H4.3715C3.02066 14.0543 2.48682 14.5588 2.48682 15.1642C2.48682 15.7695 3.02067 16.274 3.65973 16.274H4.17862C4.09984 16.89 4.09818 17.3086 4.09818 17.3465V23.6034C4.09818 24.8817 5.19779 25.9228 6.54919 25.9228C7.83392 25.9228 8.8884 24.9809 8.98976 23.7895H20.6366C20.738 24.9809 21.7924 25.9228 23.0766 25.9228C24.4274 25.9228 25.5288 24.8823 25.5288 23.6034V20.8062C24.2879 21.1674 22.9576 21.2233 21.6811 21.0518C19.4454 20.7667 17.3933 19.3096 16.2142 17.2981C15.862 16.6804 15.5557 15.9835 15.4026 15.2708C15.4009 15.2659 15.3993 15.261 15.3976 15.2561H14.8392H8.59961C7.28124 15.2561 7.84986 13.9852 7.84986 13.9852L9.34508 10.8561C9.34508 10.8561 9.77832 9.92277 10.7001 9.92277H14.8392H15.6387C16.0029 8.926 16.5403 8.0067 17.2333 7.2561ZM8.23053 17.5672C8.81615 17.5672 9.29598 17.9203 9.50973 18.4248L9.9896 19.8877C10.043 19.9378 10.043 19.9885 9.9896 20.0386C9.9896 20.0893 9.93673 20.0893 9.88275 20.0893H9.8827H8.23053C7.48349 20.0893 6.89676 19.5352 6.89676 18.8285C6.89676 18.1214 7.48404 17.5672 8.23053 17.5672Z" fill="#50555C"/>
<path d="M30.2372 9.61707L30.2095 9.63027C30.5276 9.98664 30.8043 10.409 31.0117 10.8446L31.1362 11.0953C32.1183 13.3259 31.4267 15.8997 29.6147 17.5099C27.9688 18.9486 25.6727 19.3314 23.5427 19.0674C21.5232 18.8298 19.6698 17.6155 18.6048 15.9393C18.2866 15.4245 18.01 14.8438 17.8717 14.2498C17.6919 13.7615 17.6366 13.2863 17.5951 12.798C17.4706 10.6862 18.3558 8.44238 20.0294 7.12251C19.2687 8.71956 19.4485 10.7126 20.5689 12.0984L20.721 12.27C20.9146 12.4284 21.1498 12.4812 21.3711 12.3888C21.5786 12.3096 21.7445 12.1116 21.7445 11.8741L21.6477 11.5837C20.4305 8.52158 21.4541 4.94471 24.0406 2.9253C24.746 2.37095 25.6174 1.8694 26.5303 1.64502C25.5897 3.44005 25.894 5.78943 27.4017 7.2017C28.0379 7.82204 28.7987 8.2312 29.4626 8.81195L30.2372 9.61707ZM27.0836 15.7413L27.0697 15.7281C27.6921 15.2134 28.0379 14.329 28.0103 13.5371L27.9688 13.1147C27.6921 11.7949 26.4888 11.3593 25.7142 10.3958C25.4791 10.1054 25.2716 9.73586 25.1195 9.3663C24.8152 10.0262 24.7875 10.6466 24.912 11.3593C25.0503 12.1116 25.3684 12.7584 25.2025 13.5371C24.9811 14.395 24.2757 15.2529 23.0447 15.5301C23.7363 16.1769 24.8567 16.6916 25.977 16.322C26.3366 16.2297 26.7931 15.9789 27.0836 15.7413Z" fill="#50555C"/>
</svg>
