<svg width="33" height="33" viewBox="0 0 33 33" fill="none" xmlns="http://www.w3.org/2000/svg">
<path fill-rule="evenodd" clip-rule="evenodd" d="M17.1521 10.8767C17.3827 9.81252 17.0254 8.86069 17.0254 8.86069L17.0323 8.85134C16.8657 8.34059 16.7634 7.80838 16.7512 7.2561L10.3845 7.2561C8.53618 7.2561 7.60403 8.92061 7.56271 8.99847L5.20371 13.4655C5.11501 13.6602 5.03734 13.8581 4.96682 14.0543H4.63469C3.28385 14.0543 2.75 14.5588 2.75 15.1642C2.75 15.7695 3.28385 16.274 3.92291 16.274H4.4418C4.36302 16.89 4.36137 17.3086 4.36137 17.3465V23.6034C4.36137 24.8817 5.46098 25.9228 6.81237 25.9228C8.0971 25.9228 9.15158 24.9809 9.25295 23.7895H20.8998C21.0012 24.9809 22.0556 25.9228 23.3398 25.9228C24.6906 25.9228 25.7919 24.8823 25.7919 23.6034V17.3465C25.7919 17.3091 25.7881 16.891 25.7098 16.274H26.0423C26.6819 16.274 27.2157 15.7695 27.2157 15.1642C27.2157 14.5588 26.6808 14.5538 26.0412 14.5538H25.1826C25.1317 14.4136 25.078 14.7728 25.0193 14.632C24.0488 14.5795 23.1315 14.3702 22.2901 14.0465L22.277 14.0506C22.277 14.0506 21.575 13.7717 20.7771 14L18.6257 14.6205C18.569 14.6368 18.5121 14.645 18.4548 14.645C18.3849 14.645 18.3157 14.6329 18.2494 14.6095C18 14.895 18.0218 14.8292 17.6045 15.2752C17.1743 15.7361 16.7147 16.1586 16.225 16.5414C15.8473 16.8407 15.5434 17.14 15.3163 17.4422C15.0897 17.7457 14.9746 18.1411 14.9746 18.6309V19.0137C14.9746 19.2036 14.8537 19.3039 14.6135 19.3076C14.374 19.313 14.2518 19.218 14.2518 19.0257C14.2518 18.325 14.2908 17.789 14.3681 17.417C14.4459 17.0438 14.6389 16.6309 14.9475 16.1748C15.2567 15.7289 15.5482 15.3185 15.819 14.9465C16.091 14.5757 16.225 14.0812 16.225 13.47C16.225 12.7693 16.081 12.2567 15.7871 11.9322C15.4951 11.6077 15.1056 11.4466 14.6247 11.4466C14.2984 11.4466 14.0005 11.5247 13.7296 11.6822C13.4588 11.8408 13.3243 12.1023 13.3243 12.4713L13.568 12.6155C13.6889 12.7032 13.7668 12.806 13.8069 12.9238C13.8441 13.0433 13.8648 13.1978 13.8648 13.3901C13.8648 13.6449 13.7556 13.851 13.5432 14.006C13.3278 14.1665 13.0693 14.244 12.7672 14.244C12.4763 14.244 12.2339 14.1268 12.0397 13.8883C11.8486 13.6527 11.75 13.3642 11.75 13.0235C11.75 12.744 11.8368 12.4592 12.0085 12.1689C12.1778 11.8793 12.3601 11.6438 12.5484 11.4587C12.8233 11.2045 13.1968 11.0049 13.6647 10.8613C14.1332 10.7165 14.5958 10.645 15.0525 10.645C15.9293 10.6456 16.1811 10.9022 16.8083 11.4136C17.048 11.6093 16.742 11.334 16.8902 11.5877L17.1521 10.8767ZM15.5216 20.0826C15.7588 20.3193 15.8768 20.6054 15.8768 20.9371C15.8768 21.2688 15.7594 21.5543 15.5216 21.791C15.2856 22.0278 15.0059 22.145 14.6767 22.145C14.3515 22.145 14.0677 22.0278 13.8329 21.791C13.5945 21.5543 13.4777 21.2688 13.4777 20.9371C13.4777 20.6054 13.5939 20.3193 13.8329 20.0826C14.0671 19.8452 14.3515 19.7268 14.6767 19.7268C15.0059 19.7268 15.2856 19.8458 15.5216 20.0826Z" fill="#50555C"/>
<path fill-rule="evenodd" clip-rule="evenodd" d="M19.481 8.09676C19.481 8.09676 19.7806 8.90216 19.5872 9.80265L19.2681 11.2913C19.2171 11.5253 19.2767 11.7731 19.4234 11.9435C19.5353 12.0736 19.6863 12.145 19.8411 12.145C19.8892 12.145 19.9369 12.1381 19.9845 12.1243L21.7888 11.5992C22.4581 11.4061 23.0468 11.6421 23.0468 11.6421L23.0578 11.6386C23.879 11.9574 24.7864 12.145 25.75 12.145C29.3401 12.145 32.25 9.68345 32.25 6.64503C32.25 3.6066 29.3401 1.14502 25.75 1.14502C22.1599 1.14502 19.25 3.6066 19.25 6.64503C19.25 7.14601 19.3376 7.62777 19.4867 8.08886L19.481 8.09676ZM23.2312 8.83805C23.2772 8.85534 23.3148 8.87263 23.3441 8.88992C23.3734 8.90722 23.388 8.93316 23.388 8.96774C23.388 8.99801 23.3734 9.02178 23.3441 9.03908C23.319 9.05205 23.2876 9.05853 23.25 9.05853H21.6561C21.6184 9.05853 21.585 9.05205 21.5557 9.03908C21.5306 9.02178 21.518 8.99801 21.518 8.96774C21.518 8.93316 21.5327 8.90722 21.562 8.88992C21.5912 8.87263 21.6289 8.85534 21.6749 8.83805C21.7418 8.81643 21.7962 8.79481 21.8381 8.7732C21.8841 8.74726 21.9259 8.70619 21.9636 8.64998C22.0012 8.5981 22.0242 8.53974 22.0326 8.47489C22.0451 8.40572 22.0514 8.33871 22.0514 8.27386V5.71233C22.0514 5.5956 22.0472 5.51129 22.0389 5.45941C22.0347 5.40754 22.018 5.35998 21.9887 5.31675C21.9636 5.28216 21.9071 5.26487 21.8192 5.26487H21.5682C21.4762 5.26487 21.426 5.23028 21.4176 5.16111C21.4093 5.08762 21.4553 5.04222 21.5557 5.02493C21.564 5.02493 21.6414 5.01412 21.7879 4.9925C21.9385 4.97089 22.0744 4.94279 22.1957 4.9082C22.3129 4.87361 22.4258 4.82822 22.5346 4.77202C22.6434 4.71581 22.6999 4.68555 22.704 4.68123C22.7208 4.67258 22.7354 4.66826 22.748 4.66826C22.7605 4.66394 22.7752 4.66394 22.7919 4.66826C22.8128 4.67258 22.8275 4.68339 22.8358 4.70068C22.8484 4.71798 22.8546 4.73743 22.8546 4.75905V8.27386C22.8546 8.33871 22.8588 8.40572 22.8672 8.47489C22.8797 8.53974 22.9048 8.5981 22.9425 8.64998C22.9801 8.70619 23.0199 8.74726 23.0617 8.7732C23.1077 8.79481 23.1642 8.81643 23.2312 8.83805ZM25.674 8.83805C25.72 8.85534 25.7576 8.87263 25.7869 8.88992C25.8162 8.90722 25.8308 8.93316 25.8308 8.96774C25.8308 8.99801 25.8162 9.02178 25.7869 9.03908C25.7618 9.05205 25.7304 9.05853 25.6928 9.05853H24.0989C24.0612 9.05853 24.0278 9.05205 23.9985 9.03908C23.9734 9.02178 23.9608 8.99801 23.9608 8.96774C23.9608 8.93316 23.9755 8.90722 24.0048 8.88992C24.034 8.87263 24.0717 8.85534 24.1177 8.83805C24.1846 8.81643 24.239 8.79481 24.2809 8.7732C24.3269 8.74726 24.3687 8.70619 24.4064 8.64998C24.444 8.5981 24.467 8.53974 24.4754 8.47489C24.4879 8.40572 24.4942 8.33871 24.4942 8.27386V5.71233C24.4942 5.5956 24.49 5.51129 24.4817 5.45941C24.4775 5.40754 24.4608 5.35998 24.4315 5.31675C24.4064 5.28216 24.3499 5.26487 24.262 5.26487H24.011C23.919 5.26487 23.8688 5.23028 23.8604 5.16111C23.8521 5.08762 23.8981 5.04222 23.9985 5.02493C24.0068 5.02493 24.0842 5.01412 24.2307 4.9925C24.3813 4.97089 24.5172 4.94279 24.6385 4.9082C24.7557 4.87361 24.8686 4.82822 24.9774 4.77202C25.0862 4.71581 25.1427 4.68555 25.1468 4.68123C25.1636 4.67258 25.1782 4.66826 25.1908 4.66826C25.2033 4.66394 25.218 4.66394 25.2347 4.66826C25.2556 4.67258 25.2703 4.68339 25.2786 4.70068C25.2912 4.71798 25.2974 4.73743 25.2974 4.75905V8.27386C25.2974 8.33871 25.3016 8.40572 25.31 8.47489C25.3225 8.53974 25.3476 8.5981 25.3853 8.64998C25.4229 8.70619 25.4627 8.74726 25.5045 8.7732C25.5505 8.79481 25.607 8.81643 25.674 8.83805ZM29.353 8.97423L29.6416 8.22847C29.65 8.20685 29.6521 8.18523 29.6479 8.16362C29.6437 8.13768 29.6291 8.11822 29.604 8.10525C29.5831 8.09661 29.5621 8.09877 29.5412 8.11174C29.5245 8.12471 29.5057 8.142 29.4847 8.16362C29.4178 8.25008 29.3592 8.30845 29.309 8.33871C29.263 8.36897 29.2233 8.39059 29.1898 8.40356C29.1438 8.42085 29.0852 8.43814 29.0141 8.45544C28.9472 8.47273 28.8572 8.48138 28.7443 8.48138H27.2696C27.3073 8.39491 27.3721 8.2998 27.4641 8.19604C27.5562 8.08796 27.6378 8.00366 27.7089 7.94313C27.8553 7.81776 27.9913 7.714 28.1168 7.63186C28.2464 7.54539 28.4075 7.43515 28.5999 7.30113C28.8761 7.10226 29.0957 6.89258 29.2588 6.67209C29.4262 6.4516 29.5098 6.20086 29.5098 5.91984C29.5098 5.5221 29.3467 5.21731 29.0204 5.00547C28.6983 4.78931 28.3594 4.68123 28.0038 4.68123C27.5771 4.68123 27.232 4.78499 26.9684 4.9925C26.7048 5.20002 26.5417 5.4378 26.4789 5.70584C26.4413 5.85716 26.4496 6.01063 26.504 6.16627C26.5584 6.31758 26.6756 6.39324 26.8554 6.39324C27.0521 6.39324 27.1755 6.31975 27.2257 6.17275C27.2801 6.02576 27.3073 5.84419 27.3073 5.62802C27.3073 5.45942 27.3679 5.3081 27.4892 5.17408C27.6106 5.04006 27.7674 4.97305 27.9599 4.97305C28.169 4.97305 28.3301 5.05519 28.4431 5.21947C28.5602 5.38376 28.6188 5.61073 28.6188 5.90039C28.6188 6.09926 28.5769 6.28084 28.4933 6.44512C28.4096 6.6094 28.282 6.79314 28.1105 6.99634C27.9892 7.14333 27.8302 7.30545 27.6336 7.4827C27.4411 7.65563 27.2675 7.81127 27.1127 7.94962C26.9287 8.1139 26.7571 8.29331 26.5982 8.48786C26.4392 8.68241 26.3597 8.85534 26.3597 9.00665V9.06502H29.24C29.2609 9.06502 29.2818 9.05637 29.3028 9.03908C29.3237 9.02611 29.3404 9.00449 29.353 8.97423Z" fill="#50555C"/>
</svg>
