<svg width="24" height="25" viewBox="0 0 24 25" fill="none" xmlns="http://www.w3.org/2000/svg">
<g clip-path="url(#clip0_545_4927)">
<rect x="5" y="17.145" width="3" height="4" rx="1.5" fill="#50555C"/>
<path d="M16 18.645C16 17.8166 16.6716 17.145 17.5 17.145C18.3284 17.145 19 17.8166 19 18.645V19.645C19 20.4734 18.3284 21.145 17.5 21.145C16.6716 21.145 16 20.4734 16 19.645V18.645Z" fill="#50555C"/>
<path fill-rule="evenodd" clip-rule="evenodd" d="M3 11.145H3.43125L4.3142 5.00273C4.38497 4.51048 4.80671 4.14502 5.30403 4.14502H18.696C19.1933 4.14502 19.615 4.51047 19.6858 5.00273L20.5688 11.145H21C21.5523 11.145 22 11.5927 22 12.145C22 12.6973 21.5523 13.145 21 13.145V18.145C21 18.6973 20.5523 19.145 20 19.145H4C3.44772 19.145 3 18.6973 3 18.145V13.145C2.44772 13.145 2 12.6973 2 12.145C2 11.5927 2.44772 11.145 3 11.145ZM18.5482 11.145H5.45181L6.17056 6.14502H17.8294L18.5482 11.145ZM6.5 14.145C5.67157 14.145 5 14.8166 5 15.645C5 16.4734 5.67157 17.145 6.5 17.145C7.32843 17.145 8 16.4734 8 15.645C8 14.8166 7.32843 14.145 6.5 14.145ZM17.5 14.145C16.6716 14.145 16 14.8166 16 15.645C16 16.4734 16.6716 17.145 17.5 17.145C18.3284 17.145 19 16.4734 19 15.645C19 14.8166 18.3284 14.145 17.5 14.145Z" fill="#50555C"/>
</g>
<defs>
<clipPath id="clip0_545_4927">
<rect width="24" height="24" fill="white" transform="translate(0 0.14502)"/>
</clipPath>
</defs>
</svg>
