<svg width="25" height="25" viewBox="0 0 25 25" fill="none" xmlns="http://www.w3.org/2000/svg">
<g clip-path="url(#clip0_733_9938)">
<circle cx="8.19971" cy="5.14502" r="3" fill="#50555C"/>
<path d="M8.21871 9.14505L8.19971 9.14502C4.886 9.14502 2.19971 11.8313 2.19971 15.145V16.145C2.19971 16.6973 2.64742 17.145 3.19971 17.145H6.57331C6.33043 16.3546 6.19971 15.5151 6.19971 14.645C6.19971 12.5475 6.95943 10.6275 8.21871 9.14505Z" fill="#50555C"/>
<circle cx="14.6997" cy="14.645" r="7.5" fill="#50555C"/>
<path d="M9.75635 18.145L9.74658 17.0806L12.2856 14.7466C12.9497 14.1118 13.3013 13.7212 13.3013 13.1646C13.3013 12.5396 12.8228 12.1489 12.1782 12.1489C11.5142 12.1489 11.0845 12.5688 11.0845 13.2427H9.68799C9.67822 11.856 10.7036 10.9771 12.1978 10.9771C13.7114 10.9771 14.7173 11.8364 14.7173 13.0669C14.7173 13.8677 14.3267 14.5317 12.8716 15.8501L11.7974 16.895V16.9341H14.8149V18.145H9.75635ZM18.9067 11.0747V18.145H17.4321V12.4712H17.3931L15.772 13.4868V12.188L17.52 11.0747H18.9067Z" fill="white"/>
</g>
<defs>
<clipPath id="clip0_733_9938">
<rect width="24" height="24" fill="white" transform="translate(0.199707 0.14502)"/>
</clipPath>
</defs>
</svg>
