<svg width="33" height="33" viewBox="0 0 33 33" fill="none" xmlns="http://www.w3.org/2000/svg">
<path d="M21.317 13.5022C27.917 13.5022 27.917 17.9307 27.917 17.9307V20.145H21.317V17.9307C21.317 17.9307 21.317 16.0597 20.052 14.3879C19.865 14.1332 19.634 13.8897 19.392 13.6572C19.964 13.5686 20.591 13.5022 21.317 13.5022ZM5.91699 17.9307C5.91699 17.9307 5.91699 13.5022 12.517 13.5022C19.117 13.5022 19.117 17.9307 19.117 17.9307V20.145H5.91699V17.9307ZM12.517 4.64502C10.691 4.64502 9.21699 6.12859 9.21699 7.96645C9.21699 9.80431 10.691 11.2879 12.517 11.2879C14.343 11.2879 15.817 9.80431 15.817 7.96645C15.817 6.12859 14.343 4.64502 12.517 4.64502ZM21.317 4.64502C19.491 4.64502 18.017 6.12859 18.017 7.96645C18.017 9.80431 19.491 11.2879 21.317 11.2879C23.143 11.2879 24.617 9.80431 24.617 7.96645C24.617 6.12859 23.143 4.64502 21.317 4.64502Z" fill="#50555C"/>
<path d="M12.417 22.645V21.145L7.91699 24.145L12.417 27.145V25.645H21.417V27.145L25.917 24.145L21.417 21.145V22.645H12.417Z" fill="#50555C"/>
</svg>
