<svg width="45" height="45" viewBox="0 0 45 45" fill="none" xmlns="http://www.w3.org/2000/svg">
<path d="M22.6737 42.3771C21.5541 42.326 12.6121 42.326 6.92215 43.2003C3.51228 43.7269 3.06951 40.1837 3.06951 40.1837C3.06951 40.1837 2.4995 35.623 2.5504 32.7597C2.60129 29.8965 3.56827 29.3341 6.11804 28.0508C8.66271 26.7725 8.56093 24.8296 10.5 21.9101C12.439 18.9907 18.078 18.7401 18.078 18.7401C18.078 18.7401 21.7016 18.3976 26.9284 18.7401C26.9284 18.7401 32.5725 18.9958 34.5065 21.9101C36.4404 24.8245 36.3386 26.7725 38.8884 28.0508C41.4331 29.329 42.4052 29.8914 42.4561 32.7597C42.5069 35.6281 41.9369 40.1837 41.9369 40.1837C41.9369 40.1837 41.4992 43.7269 38.0843 43.2003C32.3944 42.326 23.4575 42.326 22.3327 42.3771" fill="#C4C7CC"/>
<path d="M9.67284 42.3765V44.1916C9.67284 44.6364 9.43364 44.9994 9.13845 44.9994H4.97536C4.68018 44.9994 4.44098 44.6364 4.44098 44.1916V42.3765" fill="#C4C7CC"/>
<path d="M40.199 42.3765V44.1916C40.199 44.6364 39.9598 44.9994 39.6646 44.9994H35.5015C35.2064 44.9994 34.9672 44.6364 34.9672 44.1916V42.3765" fill="#C4C7CC"/>
<path d="M32.4532 24.9209H39.7615C40.6267 24.9209 41.3392 25.6316 41.3392 26.4957V26.5212C41.3392 27.3904 40.6318 28.096 39.7615 28.096L36.8453 28.0449" fill="#C4C7CC"/>
<path d="M9.60663 24.9209H4.91425C4.04906 24.9209 3.33655 25.6316 3.33655 26.4957V26.5212C3.33655 27.3904 4.04397 28.096 4.91425 28.096L6.53266 28.0449" fill="#C4C7CC"/>
<path d="M36.6206 28.4086C21.8156 25.9186 8.3848 28.4086 8.3848 28.4086L7.92676 28.562C10.1915 27.4218 10.0999 25.6937 11.8252 23.1014C13.5505 20.5092 18.5686 20.2791 18.5686 20.2791C18.5686 20.2791 21.7902 19.9774 26.4469 20.2791C26.4469 20.2791 31.4701 20.5092 33.1903 23.1014C34.9105 25.6937 34.824 27.4269 37.0888 28.562L36.6206 28.4086Z" fill="#F8F9FB" stroke="#F8F9FB" stroke-miterlimit="10" stroke-linecap="round" stroke-linejoin="round"/>
<path d="M30.9263 33.6289C30.9569 33.5165 36.3465 29.421 38.9573 31.8036C39.0897 31.9263 39.222 32.0644 39.3034 32.2331C39.4256 32.4785 39.4001 32.7393 39.2271 32.954C39.0133 33.225 38.6774 33.3886 38.367 33.5216C37.9191 33.7107 37.4458 33.8386 36.9776 33.9459C36.4279 34.0738 35.8681 34.1658 35.3083 34.2425C34.7484 34.3192 34.1835 34.3754 33.6186 34.4163C33.13 34.4521 32.6465 34.4726 32.158 34.4777C31.9696 34.4777 31.7813 34.4777 31.593 34.4675C31.4149 34.4572 31.1961 34.4675 31.0281 34.401C30.8296 34.3243 30.7024 34.1044 30.7584 33.8948C30.7787 33.8232 30.8144 33.7568 30.8653 33.7005C30.8703 33.6801 30.9212 33.6494 30.9263 33.6289Z" fill="#F8F9FB"/>
<path d="M13.8059 33.6289C13.7754 33.5165 8.38576 29.421 5.77492 31.8036C5.64259 31.9263 5.51027 32.0644 5.42884 32.2331C5.3067 32.4785 5.33214 32.7393 5.50518 32.954C5.71893 33.225 6.05483 33.3886 6.36528 33.5216C6.81315 33.7107 7.28646 33.8386 7.75468 33.9459C8.30433 34.0738 8.86416 34.1658 9.42399 34.2425C9.98382 34.3192 10.5487 34.3754 11.1137 34.4163C11.6022 34.4521 12.0857 34.4726 12.5743 34.4777C12.7626 34.4777 12.9509 34.4777 13.1392 34.4675C13.3173 34.4572 13.5362 34.4675 13.7041 34.401C13.9026 34.3243 14.0299 34.1044 13.9739 33.8948C13.9535 33.8232 13.9179 33.7568 13.867 33.7005C13.8568 33.6801 13.811 33.6494 13.8059 33.6289Z" fill="#F8F9FB"/>
<path d="M20.8019 17.8303L16.9811 16.5567L17.8302 18.2548L14.434 17.8303L15.7075 19.5284L19.9528 18.6794C21.0849 18.8209 23.9434 19.1039 26.3207 19.1039C28.6981 19.1039 29.2924 19.6699 29.2924 19.9529L31.4151 17.4058L28.4434 18.2548V16.1322L25.4717 17.8303L21.2264 14.4341L20.8019 17.8303Z" fill="#C4C7CC"/>
<path d="M22.9246 9.33939V3.396" stroke="#F3454C" stroke-width="3" stroke-linecap="round"/>
<path d="M13.9691 11.4648L10.1323 7.69775" stroke="#F3454C" stroke-width="3" stroke-linecap="round"/>
<path d="M32.2522 11.4648L34.8677 7.69775" stroke="#F3454C" stroke-width="3" stroke-linecap="round"/>
</svg>
