<svg width="33" height="33" viewBox="0 0 33 33" fill="none" xmlns="http://www.w3.org/2000/svg">
<path d="M14.6229 22.8904C14.7496 23.6774 15.0135 25.4782 15.3829 26.145H8.19461C7.02294 26.145 6.0835 25.1721 6.0835 23.9587V4.33136C6.0835 3.12887 7.02294 2.14502 8.19461 2.14502H17.6946L25.0835 9.77235V13.1999C24.7352 13.1453 23.3313 13.1015 22.9724 13.1015C22.6135 13.1015 22.2652 13.1453 21.9168 13.1999V10.8655H16.6391V5.39968H9.25016V22.8904H14.6229Z" fill="#50555C"/>
<path d="M24.8335 16.145L28.5835 19.0617L24.8335 21.9784V20.2284H19.8335V17.895H24.8335V16.145Z" fill="#50555C"/>
<path d="M18.5835 23.7284L22.3335 20.8117V22.5617H27.3335V24.895H22.3335V26.645L18.5835 23.7284Z" fill="#50555C"/>
</svg>
