<svg width="33" height="33" viewBox="0 0 33 33" fill="none" xmlns="http://www.w3.org/2000/svg">
<path d="M22.75 9.02002L25.25 5.64502L27.75 9.02002L26.25 9.02002L26.25 13.52L24.25 13.52L24.25 9.02002L22.75 9.02002Z" fill="#50555C"/>
<path d="M29.25 14.645L26.75 11.27L28.25 11.27L28.25 6.77002L30.25 6.77002L30.25 11.27L31.75 11.27L29.25 14.645Z" fill="#50555C"/>
<path fill-rule="evenodd" clip-rule="evenodd" d="M20.1689 4.64502H3.75C2.92157 4.64502 2.25 5.31659 2.25 6.14502V16.145C2.25 16.9734 2.92157 17.645 3.75 17.645H6.75V22.645C6.75 23.4734 7.42157 24.145 8.25 24.145H29.25C30.0784 24.145 30.75 23.4734 30.75 22.645V17.8207H28V21.395H9.5V13.895H20.1689V11.145H8.25C7.42157 11.145 6.75 11.8166 6.75 12.645V14.895H5V7.39502H20.1689V4.64502Z" fill="#50555C"/>
</svg>
