<svg width="33" height="33" viewBox="0 0 33 33" fill="none" xmlns="http://www.w3.org/2000/svg">
<path d="M25.4322 24.145C24.6225 24.145 24.0143 23.6986 23.9763 23.6701C23.1083 23.0187 22.1972 23.6632 22.188 23.6701C20.7943 24.7159 19.427 23.7133 19.3688 23.6701C18.5009 23.0187 17.5898 23.6632 17.5806 23.6701C16.1862 24.7159 14.8195 23.7133 14.7614 23.6701C13.8929 23.0187 12.9823 23.6632 12.9731 23.6701C11.5788 24.7159 10.2121 23.7133 10.1539 23.6701C9.286 23.0187 8.37489 23.6632 8.36568 23.6701C7.09402 24.6234 5.84542 23.8742 5.59201 23.7021C4.32727 23.0784 3.88264 23.5438 3.87803 23.5481C3.65342 23.8864 3.30325 23.8665 3.07864 23.5282C2.85345 23.19 2.86844 22.6225 3.09305 22.2843C3.23013 22.0767 4.01912 21.0896 5.98592 22.0758L6.06139 22.1225C6.06773 22.1268 6.98172 22.7774 7.84965 22.1225C7.90724 22.0784 9.27451 21.0767 10.6688 22.1225C10.6752 22.1268 11.5892 22.7774 12.4571 22.1225C12.5158 22.0784 13.8814 21.0767 15.2763 22.1225C15.2826 22.1268 16.196 22.7774 17.0645 22.1225C17.1227 22.0784 18.4894 21.0767 19.8837 22.1225C19.8901 22.1268 20.8035 22.7774 21.672 22.1225C21.7301 22.0784 23.0963 21.0767 24.4912 22.1225C24.4975 22.1268 25.4115 22.7774 26.2794 22.1225C26.3376 22.0784 27.7043 21.0767 29.0986 22.1225C29.3831 22.3362 29.4983 22.8561 29.356 23.2834C29.2132 23.7108 28.8682 23.8812 28.5831 23.6701C27.7152 23.0187 26.8041 23.6632 26.7949 23.6701C26.3209 24.0256 25.8492 24.145 25.4322 24.145Z" fill="#50555C"/>
<path d="M25.4322 28.145C24.6225 28.145 24.0143 27.6987 23.9763 27.6702C23.1083 27.0188 22.1972 27.6641 22.188 27.6702C20.7943 28.716 19.427 27.7143 19.3688 27.6702C18.5009 27.0188 17.5898 27.6641 17.5806 27.6702C16.1862 28.716 14.8195 27.7143 14.7614 27.6702C13.8929 27.0188 12.9823 27.6641 12.9731 27.6702C11.5788 28.716 10.2121 27.7143 10.1539 27.6702C9.286 27.0188 8.37489 27.6641 8.36568 27.6702C7.09402 28.6234 5.84542 27.8743 5.59201 27.7022C4.32727 27.0776 3.88264 27.5439 3.87803 27.5482C3.65342 27.8856 3.30325 27.8657 3.07864 27.5283C2.85345 27.1901 2.86844 26.6227 3.09305 26.2844C3.23013 26.076 4.01912 25.0898 5.98592 26.0759L6.06139 26.1227C6.06773 26.127 6.98172 26.7775 7.84965 26.1227C7.90724 26.0794 9.27451 25.076 10.6688 26.1227C10.6752 26.127 11.5892 26.7775 12.4571 26.1227C12.5158 26.0794 13.8814 25.076 15.2763 26.1227C15.2826 26.127 16.196 26.7775 17.0645 26.1227C17.1227 26.0794 18.4894 25.076 19.8837 26.1227C19.8901 26.127 20.8035 26.7775 21.672 26.1227C21.7301 26.0794 23.0963 25.076 24.4912 26.1227C24.4975 26.127 25.4115 26.7775 26.2794 26.1227C26.3376 26.0794 27.7043 25.076 29.0986 26.1227C29.3831 26.3363 29.4983 26.8562 29.356 27.2835C29.2132 27.7108 28.8682 27.8821 28.5831 27.6702C27.7152 27.0188 26.8041 27.6641 26.7949 27.6702C26.3209 28.0257 25.8492 28.145 25.4322 28.145Z" fill="#50555C"/>
<path fill-rule="evenodd" clip-rule="evenodd" d="M27.3616 12.2872H26.4789C26.4025 12.0767 26.3198 11.8646 26.224 11.6535L23.8085 7.08301C23.7688 7.01009 22.8122 5.29889 20.9115 5.29889H11.2657C9.3655 5.29889 8.4072 7.01009 8.36472 7.09013L5.93954 11.6825C5.84835 11.8826 5.7685 12.086 5.696 12.2878H5.35455C3.96582 12.2878 3.41699 12.8065 3.41699 13.4288C3.41699 14.0511 3.96582 14.5697 4.62281 14.5697H5.15625C5.07526 15.203 5.07356 15.6334 5.07356 15.6723V19.6516C5.22112 19.6891 5.37647 19.7347 5.5399 19.7892L5.61578 19.8205L5.61617 19.8207C5.63865 19.8311 6.54885 20.2549 7.41357 19.8205C7.47147 19.791 8.84603 19.1205 10.2478 19.8205L10.2482 19.8207C10.2707 19.8311 11.1809 20.2549 12.0456 19.8205C12.1046 19.791 13.4775 19.1205 14.8798 19.8205L14.8802 19.8207C14.9028 19.8312 15.8124 20.2548 16.6776 19.8205C16.7361 19.791 18.1101 19.1205 19.5118 19.8205L19.5122 19.8207C19.5348 19.8312 20.4444 20.2548 21.3096 19.8205C21.3681 19.791 22.7415 19.1205 24.1438 19.8205L24.1442 19.8207C24.1668 19.8312 25.077 20.2548 25.9416 19.8205C25.9753 19.8035 26.4452 19.574 27.1053 19.516V15.6723C27.1053 15.634 27.1013 15.2041 27.0209 14.5697H27.3627C28.0203 14.5697 28.5691 14.0511 28.5691 13.4288C28.5691 12.8065 28.0191 12.2872 27.3616 12.2872ZM23.3009 12.2167L21.7638 8.99989C21.7638 8.99989 21.3184 8.04037 20.3707 8.04037H16.116H11.8607C10.9131 8.04037 10.4677 8.99989 10.4677 8.99989L8.93051 12.2167C8.93051 12.2167 8.34593 13.5233 9.70129 13.5233H16.116H22.5302C23.8855 13.5233 23.3009 12.2167 23.3009 12.2167ZM9.32183 15.8992C9.92388 15.8992 10.4172 16.2622 10.6369 16.7809L11.1302 18.2848C11.1852 18.3364 11.1852 18.3885 11.1302 18.44C11.1302 18.4921 11.0759 18.4921 11.0204 18.4921H11.0204H9.32183C8.55383 18.4921 7.95064 17.9224 7.95064 17.196C7.95064 16.4689 8.5544 15.8992 9.32183 15.8992ZM22.0565 15.8671C22.2757 15.3484 22.7696 14.9854 23.3722 14.9854C24.1391 14.9854 24.7417 15.5551 24.7417 16.2822C24.7417 17.0086 24.1391 17.5783 23.3722 17.5783H21.6719H21.6719C21.6181 17.5783 21.5637 17.5783 21.5637 17.5262C21.5082 17.4746 21.5082 17.4226 21.5637 17.371L22.0565 15.8671Z" fill="#50555C"/>
</svg>
