<svg width="45" height="45" viewBox="0 0 45 45" fill="none" xmlns="http://www.w3.org/2000/svg">
<path d="M22.6704 42.3771C21.5508 42.326 12.6088 42.326 6.91886 43.2003C3.50899 43.7269 3.06621 40.1837 3.06621 40.1837C3.06621 40.1837 2.49621 35.623 2.5471 32.7597C2.59799 29.8965 3.56497 29.3341 6.11474 28.0508C8.65942 26.7725 8.55763 24.8296 10.4967 21.9101C12.4357 18.9907 18.0747 18.7401 18.0747 18.7401C18.0747 18.7401 21.6984 18.3976 26.9251 18.7401C26.9251 18.7401 32.5692 18.9958 34.5032 21.9101C36.4371 24.8245 36.3354 26.7725 38.8851 28.0508C41.4298 29.329 42.4019 29.8914 42.4528 32.7597C42.5037 35.6281 41.9336 40.1837 41.9336 40.1837C41.9336 40.1837 41.496 43.7269 38.081 43.2003C32.3911 42.326 23.4542 42.326 22.3294 42.3771" fill="#C4C7CC"/>
<path d="M9.67284 42.3765V44.1916C9.67284 44.6364 9.43364 44.9994 9.13846 44.9994H4.97536C4.68018 44.9994 4.44098 44.6364 4.44098 44.1916V42.3765" fill="#C4C7CC"/>
<path d="M40.1991 42.3765V44.1916C40.1991 44.6364 39.9599 44.9994 39.6647 44.9994H35.5016C35.2064 44.9994 34.9672 44.6364 34.9672 44.1916V42.3765" fill="#C4C7CC"/>
<path d="M32.4532 24.9209H39.7615C40.6267 24.9209 41.3392 25.6316 41.3392 26.4957V26.5212C41.3392 27.3904 40.6318 28.096 39.7615 28.096L36.8453 28.0449" fill="#C4C7CC"/>
<path d="M9.60664 24.9209H4.91425C4.04906 24.9209 3.33655 25.6316 3.33655 26.4957V26.5212C3.33655 27.3904 4.04397 28.096 4.91425 28.096L6.53267 28.0449" fill="#C4C7CC"/>
<path d="M36.6206 28.4086C21.8156 25.9186 8.3848 28.4086 8.3848 28.4086L7.92676 28.562C10.1915 27.4218 10.0999 25.6937 11.8252 23.1014C13.5505 20.5092 18.5686 20.2791 18.5686 20.2791C18.5686 20.2791 21.7902 19.9774 26.4469 20.2791C26.4469 20.2791 31.4701 20.5092 33.1903 23.1014C34.9105 25.6937 34.824 27.4269 37.0888 28.562L36.6206 28.4086Z" fill="#F8F9FB" stroke="#F8F9FB" stroke-miterlimit="10" stroke-linecap="round" stroke-linejoin="round"/>
<path d="M30.9263 33.6289C30.9569 33.5165 36.3465 29.421 38.9573 31.8036C39.0897 31.9263 39.222 32.0644 39.3034 32.2331C39.4256 32.4785 39.4001 32.7393 39.2271 32.954C39.0133 33.225 38.6774 33.3886 38.367 33.5216C37.9191 33.7107 37.4458 33.8386 36.9776 33.9459C36.4279 34.0738 35.8681 34.1658 35.3083 34.2425C34.7484 34.3192 34.1835 34.3754 33.6186 34.4163C33.13 34.4521 32.6465 34.4726 32.158 34.4777C31.9696 34.4777 31.7813 34.4777 31.593 34.4675C31.4149 34.4572 31.1961 34.4675 31.0281 34.401C30.8296 34.3243 30.7024 34.1044 30.7584 33.8948C30.7787 33.8232 30.8144 33.7568 30.8653 33.7005C30.8703 33.6801 30.9212 33.6494 30.9263 33.6289Z" fill="#F8F9FB"/>
<path d="M13.8059 33.6289C13.7754 33.5165 8.38576 29.421 5.77492 31.8036C5.64259 31.9263 5.51027 32.0644 5.42884 32.2331C5.3067 32.4785 5.33214 32.7393 5.50518 32.954C5.71893 33.225 6.05483 33.3886 6.36528 33.5216C6.81315 33.7107 7.28646 33.8386 7.75468 33.9459C8.30433 34.0738 8.86416 34.1658 9.42399 34.2425C9.98382 34.3192 10.5487 34.3754 11.1137 34.4163C11.6022 34.4521 12.0857 34.4726 12.5743 34.4777C12.7626 34.4777 12.9509 34.4777 13.1392 34.4675C13.3173 34.4572 13.5362 34.4675 13.7041 34.401C13.9026 34.3243 14.0299 34.1044 13.9739 33.8948C13.9535 33.8232 13.9179 33.7568 13.867 33.7005C13.8568 33.6801 13.811 33.6494 13.8059 33.6289Z" fill="#F8F9FB"/>
<path fill-rule="evenodd" clip-rule="evenodd" d="M28.1139 2.54727L22.1075 11.0694H34.8113L28.1139 17.6776L22.062 22.9246L28.6119 13.9015H16.1321L23.7681 2.54727H28.1139Z" fill="#F3454C"/>
<path d="M19.5283 22.0757L17.8302 23.7738L14.434 22.9247L13.1604 25.4719" stroke="#F3454C" stroke-width="2" stroke-linecap="square"/>
</svg>
