<svg width="25" height="25" viewBox="0 0 25 25" fill="none" xmlns="http://www.w3.org/2000/svg">
<g clip-path="url(#clip0_545_4934)">
<circle cx="8.59961" cy="5.14502" r="3" fill="#50555C"/>
<path d="M8.61862 9.14505L8.59961 9.14502C5.2859 9.14502 2.59961 11.8313 2.59961 15.145V16.145C2.59961 16.6973 3.04732 17.145 3.59961 17.145H6.97321C6.73033 16.3546 6.59961 15.5151 6.59961 14.645C6.59961 12.5475 7.35933 10.6275 8.61862 9.14505Z" fill="#50555C"/>
<circle cx="15.0996" cy="14.645" r="7.5" fill="#50555C"/>
<path d="M10.1562 18.145L10.1465 17.0806L12.6855 14.7466C13.3447 14.1167 13.7012 13.7261 13.7012 13.1646C13.7012 12.5347 13.2275 12.144 12.5781 12.1489C11.9141 12.144 11.4795 12.564 11.4844 13.2427H10.0879C10.083 11.8608 11.1084 10.9771 12.5977 10.9771C14.1113 10.9771 15.1172 11.8413 15.1172 13.0669C15.1172 13.8726 14.7266 14.5317 13.2715 15.8501L12.1973 16.895V16.9341H15.2148V18.145H10.1562ZM19.3066 11.0747V18.145H17.832V12.4712H17.793L16.1719 13.4868V12.188L17.9199 11.0747H19.3066Z" fill="white"/>
</g>
<defs>
<clipPath id="clip0_545_4934">
<rect width="24" height="24" fill="white" transform="translate(0.599609 0.14502)"/>
</clipPath>
</defs>
</svg>
