<svg width="45" height="45" viewBox="0 0 45 45" fill="none" xmlns="http://www.w3.org/2000/svg">
<path d="M22.6704 42.3771C21.5507 42.326 12.6087 42.326 6.91883 43.2003C3.50896 43.7269 3.06618 40.1837 3.06618 40.1837C3.06618 40.1837 2.49618 35.623 2.54707 32.7597C2.59796 29.8965 3.56494 29.3341 6.11471 28.0508C8.65939 26.7725 8.5576 24.8296 10.4966 21.9101C12.4357 18.9907 18.0747 18.7401 18.0747 18.7401C18.0747 18.7401 21.6983 18.3976 26.9251 18.7401C26.9251 18.7401 32.5692 18.9958 34.5031 21.9101C36.4371 24.8245 36.3353 26.7725 38.8851 28.0508C41.4298 29.329 42.4018 29.8914 42.4527 32.7597C42.5036 35.6281 41.9336 40.1837 41.9336 40.1837C41.9336 40.1837 41.4959 43.7269 38.081 43.2003C32.3911 42.326 23.4541 42.326 22.3294 42.3771" fill="#C4C7CC"/>
<path d="M9.67284 42.3765V44.1916C9.67284 44.6364 9.43364 44.9994 9.13845 44.9994H4.97536C4.68018 44.9994 4.44098 44.6364 4.44098 44.1916V42.3765" fill="#C4C7CC"/>
<path d="M40.1991 42.3765V44.1916C40.1991 44.6364 39.9599 44.9994 39.6647 44.9994H35.5016C35.2064 44.9994 34.9672 44.6364 34.9672 44.1916V42.3765" fill="#C4C7CC"/>
<path d="M32.4532 24.9209H39.7615C40.6267 24.9209 41.3392 25.6316 41.3392 26.4957V26.5212C41.3392 27.3904 40.6318 28.096 39.7615 28.096L36.8453 28.0449" fill="#C4C7CC"/>
<path d="M9.6066 24.9209H4.91422C4.04903 24.9209 3.33652 25.6316 3.33652 26.4957V26.5212C3.33652 27.3904 4.04394 28.096 4.91422 28.096L6.53263 28.0449" fill="#C4C7CC"/>
<path d="M36.6206 28.4086C21.8156 25.9186 8.3848 28.4086 8.3848 28.4086L7.92676 28.562C10.1915 27.4218 10.0999 25.6937 11.8252 23.1014C13.5505 20.5092 18.5686 20.2791 18.5686 20.2791C18.5686 20.2791 21.7902 19.9774 26.4469 20.2791C26.4469 20.2791 31.4701 20.5092 33.1903 23.1014C34.9105 25.6937 34.824 27.4269 37.0888 28.562L36.6206 28.4086Z" fill="#F8F9FB" stroke="#F8F9FB" stroke-miterlimit="10" stroke-linecap="round" stroke-linejoin="round"/>
<path d="M22.0945 16.1171C22.0702 16.3635 22.0702 16.6159 22.0885 16.8682C22.2463 18.8927 24.2316 20.3774 26.314 20.3774C27.9958 20.3774 29.4407 19.503 30.1571 18.0301C31.0132 16.2696 30.3757 15.3014 29.6107 13.7228C28.4997 11.4166 27.4433 9.09282 26.314 6.79248C25.6583 8.17738 24.7962 9.95545 24.1405 11.3403C23.3513 13.001 22.2645 14.2451 22.0945 16.1171Z" fill="#F8F9FB" stroke="#FC535A" stroke-width="2" stroke-miterlimit="10" stroke-linecap="round" stroke-linejoin="round"/>
<path d="M14.4485 9.27585C14.4303 9.47306 14.4303 9.68222 14.4424 9.88541C14.5704 11.5348 16.1601 12.736 17.8229 12.736C19.169 12.736 20.3263 12.0248 20.8988 10.8296C21.5871 9.40135 21.0693 8.61251 20.4603 7.32767C19.571 5.45717 18.7243 3.56276 17.8229 1.69824C17.293 2.82174 16.6108 4.26794 16.0809 5.39143C15.4535 6.74799 14.5825 7.75794 14.4485 9.27585Z" fill="#F8F9FB" stroke="#FC535A" stroke-width="2" stroke-miterlimit="10" stroke-linecap="round" stroke-linejoin="round"/>
<path d="M30.9264 33.6289C30.9569 33.5165 36.3465 29.421 38.9574 31.8036C39.0897 31.9263 39.222 32.0644 39.3034 32.2331C39.4256 32.4785 39.4001 32.7393 39.2271 32.954C39.0133 33.225 38.6774 33.3886 38.367 33.5216C37.9191 33.7107 37.4458 33.8386 36.9776 33.9459C36.428 34.0738 35.8681 34.1658 35.3083 34.2425C34.7485 34.3192 34.1835 34.3754 33.6186 34.4163C33.13 34.4521 32.6466 34.4726 32.158 34.4777C31.9697 34.4777 31.7814 34.4777 31.5931 34.4675C31.4149 34.4572 31.1961 34.4675 31.0281 34.401C30.8297 34.3243 30.7024 34.1044 30.7584 33.8948C30.7788 33.8232 30.8144 33.7568 30.8653 33.7005C30.8704 33.6801 30.9213 33.6494 30.9264 33.6289Z" fill="#F8F9FB"/>
<path d="M13.8059 33.6289C13.7754 33.5165 8.38576 29.421 5.77492 31.8036C5.64259 31.9263 5.51027 32.0644 5.42884 32.2331C5.3067 32.4785 5.33214 32.7393 5.50518 32.954C5.71893 33.225 6.05483 33.3886 6.36528 33.5216C6.81315 33.7107 7.28646 33.8386 7.75468 33.9459C8.30433 34.0738 8.86416 34.1658 9.42399 34.2425C9.98382 34.3192 10.5487 34.3754 11.1137 34.4163C11.6022 34.4521 12.0857 34.4726 12.5743 34.4777C12.7626 34.4777 12.9509 34.4777 13.1392 34.4675C13.3173 34.4572 13.5362 34.4675 13.7041 34.401C13.9026 34.3243 14.0299 34.1044 13.9739 33.8948C13.9535 33.8232 13.9179 33.7568 13.867 33.7005C13.8568 33.6801 13.811 33.6494 13.8059 33.6289Z" fill="#F8F9FB"/>
</svg>
