<svg width="51" height="54" viewBox="0 0 51 54" fill="none" xmlns="http://www.w3.org/2000/svg">
<g clip-path="url(#clip0_733_9916)">
<path d="M25.7007 50.056C24.382 49.9958 13.8503 49.9958 7.14884 51.0256C3.13277 51.6458 2.61128 47.4727 2.61128 47.4727C2.61128 47.4727 1.93994 42.1011 1.99988 38.7289C2.05982 35.3566 3.19871 34.6942 6.20177 33.1828C9.19883 31.6773 9.07895 29.389 11.3627 25.9505C13.6465 22.512 20.288 22.2169 20.288 22.2169C20.288 22.2169 24.5558 21.8135 30.7118 22.2169C30.7118 22.2169 37.3593 22.518 39.637 25.9505C41.9148 29.3829 41.7949 31.6773 44.798 33.1828C47.7951 34.6882 48.9399 35.3506 48.9999 38.7289C49.0598 42.1072 48.3885 47.4727 48.3885 47.4727C48.3885 47.4727 47.873 51.6458 43.8509 51.0256C37.1495 49.9958 26.6238 49.9958 25.2991 50.056" fill="#C4C7CC"/>
<path d="M10.3924 50.0552V52.1929C10.3924 52.7168 10.1107 53.1444 9.76305 53.1444H4.85985C4.51219 53.1444 4.23047 52.7168 4.23047 52.1929V50.0552" fill="#C4C7CC"/>
<path d="M46.3456 50.0552V52.1929C46.3456 52.7168 46.0638 53.1444 45.7162 53.1444H40.813C40.4653 53.1444 40.1836 52.7168 40.1836 52.1929V50.0552" fill="#C4C7CC"/>
<path d="M37.2227 29.4966H45.8302C46.8492 29.4966 47.6884 30.3336 47.6884 31.3513V31.3814C47.6884 32.4051 46.8552 33.2362 45.8302 33.2362L42.3956 33.1759" fill="#C4C7CC"/>
<path d="M10.3145 29.4966H4.78787C3.76887 29.4966 2.92969 30.3336 2.92969 31.3513V31.3814C2.92969 32.4051 3.76287 33.2362 4.78787 33.2362L6.694 33.1759" fill="#C4C7CC"/>
<path d="M42.1309 33.6043C24.6939 30.6716 8.87541 33.6043 8.87541 33.6043L8.33594 33.7849C11.0033 32.442 10.8954 30.4067 12.9274 27.3536C14.9595 24.3005 20.8697 24.0295 20.8697 24.0295C20.8697 24.0295 24.664 23.6742 30.1486 24.0295C30.1486 24.0295 36.0648 24.3005 38.0908 27.3536C40.1168 30.4067 40.0149 32.4481 42.6823 33.7849L42.1309 33.6043Z" fill="#F8F9FB" stroke="#F8F9FB" stroke-miterlimit="10" stroke-linecap="round" stroke-linejoin="round"/>
<path d="M35.4244 39.7526C35.4603 39.6201 41.8081 34.7966 44.8831 37.6028C45.039 37.7473 45.1948 37.9099 45.2907 38.1086C45.4346 38.3977 45.4046 38.7048 45.2008 38.9577C44.949 39.2769 44.5534 39.4696 44.1878 39.6262C43.6603 39.849 43.1028 39.9995 42.5514 40.126C41.904 40.2765 41.2447 40.3849 40.5853 40.4752C39.926 40.5656 39.2606 40.6318 38.5953 40.68C38.0198 40.7221 37.4504 40.7462 36.8749 40.7523C36.6532 40.7523 36.4314 40.7523 36.2096 40.7402C35.9998 40.7282 35.742 40.7402 35.5442 40.6619C35.3105 40.5716 35.1606 40.3127 35.2266 40.0658C35.2505 39.9815 35.2925 39.9032 35.3524 39.8369C35.3584 39.8128 35.4184 39.7767 35.4244 39.7526Z" fill="#F8F9FB"/>
<path d="M15.2603 39.7526C15.2244 39.6201 8.87657 34.7966 5.80158 37.6028C5.64573 37.7473 5.48989 37.9099 5.39398 38.1086C5.25012 38.3977 5.28009 38.7048 5.48389 38.9577C5.73564 39.2769 6.13126 39.4696 6.4969 39.6262C7.02438 39.849 7.58184 39.9995 8.1333 40.126C8.78066 40.2765 9.44002 40.3849 10.0994 40.4752C10.7587 40.5656 11.4241 40.6318 12.0894 40.68C12.6649 40.7221 13.2343 40.7462 13.8097 40.7523C14.0315 40.7523 14.2533 40.7523 14.4751 40.7402C14.6849 40.7282 14.9426 40.7402 15.1404 40.6619C15.3742 40.5716 15.5241 40.3127 15.4581 40.0658C15.4342 39.9815 15.3922 39.9032 15.3323 39.8369C15.3203 39.8128 15.2663 39.7767 15.2603 39.7526Z" fill="#F8F9FB"/>
<path fill-rule="evenodd" clip-rule="evenodd" d="M32.112 3.14491L25.0377 13.1821H40L32.112 20.965L24.9841 27.1449L32.6985 16.5177H18L26.9936 3.14491H32.112Z" fill="#F3454C"/>
<path d="M22 26.145L20 28.145L16 27.145L14.5 30.145" stroke="#F3454C" stroke-width="2" stroke-linecap="square"/>
<path d="M48.6359 42.4105L46.5664 44.3385L42.6043 43.1975L40.999 46.1425" stroke="#F3454C" stroke-width="2" stroke-linecap="square"/>
</g>
<defs>
<clipPath id="clip0_733_9916">
<rect width="51" height="53" fill="white" transform="translate(0 0.14502)"/>
</clipPath>
</defs>
</svg>
