<svg width="52" height="53" viewBox="0 0 52 53" fill="none" xmlns="http://www.w3.org/2000/svg">
<path d="M26.2007 49.911C24.882 49.8508 14.3503 49.8508 7.64884 50.8805C3.63277 51.5008 3.11128 47.3276 3.11128 47.3276C3.11128 47.3276 2.43994 41.9561 2.49988 38.5839C2.55982 35.2116 3.69871 34.5492 6.70177 33.0377C9.69883 31.5323 9.57895 29.2439 11.8627 25.8055C14.1465 22.367 20.788 22.0719 20.788 22.0719C20.788 22.0719 25.0558 21.6684 31.2118 22.0719C31.2118 22.0719 37.8593 22.373 40.137 25.8055C42.4148 29.2379 42.2949 31.5323 45.298 33.0377C48.2951 34.5432 49.4399 35.2056 49.4999 38.5839C49.5598 41.9621 48.8885 47.3276 48.8885 47.3276C48.8885 47.3276 48.373 51.5008 44.3509 50.8805C37.6495 49.8508 27.1238 49.8508 25.7991 49.911" fill="#C4C7CC"/>
<path d="M10.8924 49.9102V52.0479C10.8924 52.5718 10.6107 52.9994 10.2631 52.9994H5.35985C5.01219 52.9994 4.73047 52.5718 4.73047 52.0479V49.9102" fill="#C4C7CC"/>
<path d="M46.8456 49.9102V52.0479C46.8456 52.5718 46.5638 52.9994 46.2162 52.9994H41.313C40.9653 52.9994 40.6836 52.5718 40.6836 52.0479V49.9102" fill="#C4C7CC"/>
<path d="M37.7227 29.3516H46.3302C47.3492 29.3516 48.1884 30.1886 48.1884 31.2063V31.2364C48.1884 32.2601 47.3552 33.0911 46.3302 33.0911L42.8956 33.0309" fill="#C4C7CC"/>
<path d="M10.8145 29.3516H5.28787C4.26887 29.3516 3.42969 30.1886 3.42969 31.2063V31.2364C3.42969 32.2601 4.26287 33.0911 5.28787 33.0911L7.194 33.0309" fill="#C4C7CC"/>
<path d="M42.6309 33.4592C25.1939 30.5266 9.37541 33.4592 9.37541 33.4592L8.83594 33.6399C11.5033 32.297 11.3954 30.2616 13.4274 27.2085C15.4595 24.1555 21.3697 23.8845 21.3697 23.8845C21.3697 23.8845 25.164 23.5292 30.6486 23.8845C30.6486 23.8845 36.5648 24.1555 38.5908 27.2085C40.6168 30.2616 40.5149 32.3031 43.1823 33.6399L42.6309 33.4592Z" fill="#F8F9FB" stroke="#F8F9FB" stroke-miterlimit="10" stroke-linecap="round" stroke-linejoin="round"/>
<path d="M35.9244 39.6076C35.9603 39.4751 42.3081 34.6516 45.3831 37.4578C45.539 37.6023 45.6948 37.7649 45.7907 37.9636C45.9346 38.2527 45.9046 38.5598 45.7008 38.8127C45.449 39.1319 45.0534 39.3246 44.6878 39.4811C44.1603 39.7039 43.6028 39.8545 43.0514 39.981C42.404 40.1315 41.7447 40.2399 41.0853 40.3302C40.426 40.4206 39.7606 40.4868 39.0953 40.535C38.5198 40.5771 37.9504 40.6012 37.3749 40.6072C37.1532 40.6072 36.9314 40.6072 36.7096 40.5952C36.4998 40.5831 36.242 40.5952 36.0442 40.5169C35.8105 40.4266 35.6606 40.1676 35.7266 39.9207C35.7505 39.8364 35.7925 39.7581 35.8524 39.6919C35.8584 39.6678 35.9184 39.6317 35.9244 39.6076Z" fill="#F8F9FB"/>
<path d="M15.7603 39.6076C15.7244 39.4751 9.37657 34.6516 6.30158 37.4578C6.14573 37.6023 5.98989 37.7649 5.89398 37.9636C5.75012 38.2527 5.78009 38.5598 5.98389 38.8127C6.23564 39.1319 6.63126 39.3246 6.9969 39.4811C7.52438 39.7039 8.08184 39.8545 8.6333 39.981C9.28066 40.1315 9.94002 40.2399 10.5994 40.3302C11.2587 40.4206 11.9241 40.4868 12.5894 40.535C13.1649 40.5771 13.7343 40.6012 14.3097 40.6072C14.5315 40.6072 14.7533 40.6072 14.9751 40.5952C15.1849 40.5831 15.4426 40.5952 15.6404 40.5169C15.8742 40.4266 16.0241 40.1676 15.9581 39.9207C15.9342 39.8364 15.8922 39.7581 15.8323 39.6919C15.8203 39.6678 15.7663 39.6317 15.7603 39.6076Z" fill="#F8F9FB"/>
<path d="M34.6758 8.90565C34.7354 9.15689 34.7865 9.40813 34.829 9.66748" stroke="#F3454C" stroke-width="2" stroke-miterlimit="10" stroke-linecap="round" stroke-linejoin="round"/>
<path d="M16.1748 9.28641C16.9921 5.11374 20.8405 1.95386 25.4635 1.95386C29.9419 1.95386 33.6965 4.91929 34.6671 8.90561" stroke="#F3454C" stroke-width="2" stroke-miterlimit="10" stroke-linecap="round" stroke-linejoin="round"/>
<path d="M16.209 12.8028C17.1029 16.8863 20.9087 19.949 25.4637 19.949C29.1928 19.949 32.4281 17.891 33.9606 14.9013" stroke="#F3454C" stroke-width="2" stroke-miterlimit="10" stroke-linecap="round" stroke-linejoin="round"/>
<path d="M31.0146 7.73066L34.8204 10.4854L36.9063 6.39378" stroke="#F3454C" stroke-width="2" stroke-miterlimit="10" stroke-linecap="round" stroke-linejoin="round"/>
<path d="M20.3296 14.5528L15.979 12.6812L14.9062 17.1131" stroke="#F3454C" stroke-width="2" stroke-miterlimit="10" stroke-linecap="round" stroke-linejoin="round"/>
</svg>
